<mxfile host="app.diagrams.net" modified="2024-03-12T19:40:12.773Z" agent="Mozilla/5.0 (Windows NT 10.0; Win64; x64) AppleWebKit/537.36 (KHTML, like Gecko) Chrome/122.0.0.0 Safari/537.36 Edg/122.0.0.0" etag="pmN6-fnQvS6lRx8R4l9X" version="24.0.4" type="github">
  <diagram name="Página-1" id="4zgEA9HZdJGA7D0MG-Gx">
    <mxGraphModel dx="928" dy="629" grid="1" gridSize="10" guides="1" tooltips="1" connect="1" arrows="1" fold="1" page="1" pageScale="1" pageWidth="827" pageHeight="1169" math="0" shadow="0">
      <root>
        <mxCell id="0" />
        <mxCell id="1" parent="0" />
        <mxCell id="3TLyr5KfRs7zvD90Gjim-1" value="Inicio" style="ellipse;whiteSpace=wrap;html=1;align=center;newEdgeStyle={&quot;edgeStyle&quot;:&quot;entityRelationEdgeStyle&quot;,&quot;startArrow&quot;:&quot;none&quot;,&quot;endArrow&quot;:&quot;none&quot;,&quot;segment&quot;:10,&quot;curved&quot;:1,&quot;sourcePerimeterSpacing&quot;:0,&quot;targetPerimeterSpacing&quot;:0};treeFolding=1;treeMoving=1;fillColor=#ffe6cc;strokeColor=#d79b00;" parent="1" vertex="1">
          <mxGeometry x="315" y="120" width="130" height="60" as="geometry" />
        </mxCell>
        <mxCell id="-3cDzw1IV1JCf2Cq5zp4-3" value="Colocar a frigideira no fogo" style="rounded=0;whiteSpace=wrap;html=1;fillColor=#ffe6cc;strokeColor=#d79b00;" vertex="1" parent="1">
          <mxGeometry x="320" y="860" width="120" height="60" as="geometry" />
        </mxCell>
        <mxCell id="-3cDzw1IV1JCf2Cq5zp4-5" value="Pegar um ovo" style="rounded=0;whiteSpace=wrap;html=1;fillColor=#ffe6cc;strokeColor=#d79b00;" vertex="1" parent="1">
          <mxGeometry x="330" y="260" width="100" height="40" as="geometry" />
        </mxCell>
        <mxCell id="-3cDzw1IV1JCf2Cq5zp4-6" value="Quebrar o ovo separando a casca" style="rounded=0;whiteSpace=wrap;html=1;fillColor=#ffe6cc;strokeColor=#d79b00;" vertex="1" parent="1">
          <mxGeometry x="320" y="1100" width="120" height="60" as="geometry" />
        </mxCell>
        <mxCell id="-3cDzw1IV1JCf2Cq5zp4-9" value="Retirar o ovo da frigideira" style="rounded=0;whiteSpace=wrap;html=1;fillColor=#ffe6cc;strokeColor=#d79b00;" vertex="1" parent="1">
          <mxGeometry x="327.5" y="1670" width="105" height="50" as="geometry" />
        </mxCell>
        <mxCell id="-3cDzw1IV1JCf2Cq5zp4-10" value="Esperar fritar" style="rounded=0;whiteSpace=wrap;html=1;fillColor=#ffe6cc;strokeColor=#d79b00;" vertex="1" parent="1">
          <mxGeometry x="325" y="1440" width="110" height="30" as="geometry" />
        </mxCell>
        <mxCell id="-3cDzw1IV1JCf2Cq5zp4-11" value="Espera o óleo esquentar" style="rounded=0;whiteSpace=wrap;html=1;fillColor=#ffe6cc;strokeColor=#d79b00;" vertex="1" parent="1">
          <mxGeometry x="320" y="970" width="120" height="60" as="geometry" />
        </mxCell>
        <mxCell id="-3cDzw1IV1JCf2Cq5zp4-27" value="" style="edgeStyle=orthogonalEdgeStyle;rounded=0;orthogonalLoop=1;jettySize=auto;html=1;" edge="1" parent="1" source="-3cDzw1IV1JCf2Cq5zp4-12" target="-3cDzw1IV1JCf2Cq5zp4-26">
          <mxGeometry relative="1" as="geometry" />
        </mxCell>
        <mxCell id="-3cDzw1IV1JCf2Cq5zp4-12" value="Colocar o&lt;div&gt;&amp;nbsp;conteúdo do ovo na frigideira&lt;/div&gt;" style="rhombus;whiteSpace=wrap;html=1;fillColor=#ffe6cc;strokeColor=#d79b00;" vertex="1" parent="1">
          <mxGeometry x="320" y="690" width="120" height="110" as="geometry" />
        </mxCell>
        <mxCell id="-3cDzw1IV1JCf2Cq5zp4-13" value="Pegar manteiga" style="rounded=0;whiteSpace=wrap;html=1;fillColor=#ffe6cc;strokeColor=#d79b00;" vertex="1" parent="1">
          <mxGeometry x="330" y="350" width="100" height="40" as="geometry" />
        </mxCell>
        <mxCell id="-3cDzw1IV1JCf2Cq5zp4-14" value="Com sal" style="rounded=0;whiteSpace=wrap;html=1;fillColor=#ffe6cc;strokeColor=#d79b00;" vertex="1" parent="1">
          <mxGeometry x="515" y="462.5" width="95" height="27.5" as="geometry" />
        </mxCell>
        <mxCell id="-3cDzw1IV1JCf2Cq5zp4-15" value="Ligar fogão" style="rounded=0;whiteSpace=wrap;html=1;fillColor=#ffe6cc;strokeColor=#d79b00;" vertex="1" parent="1">
          <mxGeometry x="330" y="580" width="100" height="40" as="geometry" />
        </mxCell>
        <mxCell id="-3cDzw1IV1JCf2Cq5zp4-29" value="" style="edgeStyle=orthogonalEdgeStyle;rounded=0;orthogonalLoop=1;jettySize=auto;html=1;" edge="1" parent="1" source="-3cDzw1IV1JCf2Cq5zp4-16" target="-3cDzw1IV1JCf2Cq5zp4-28">
          <mxGeometry relative="1" as="geometry" />
        </mxCell>
        <mxCell id="-3cDzw1IV1JCf2Cq5zp4-31" value="" style="edgeStyle=orthogonalEdgeStyle;rounded=0;orthogonalLoop=1;jettySize=auto;html=1;" edge="1" parent="1" source="-3cDzw1IV1JCf2Cq5zp4-16" target="-3cDzw1IV1JCf2Cq5zp4-30">
          <mxGeometry relative="1" as="geometry" />
        </mxCell>
        <mxCell id="-3cDzw1IV1JCf2Cq5zp4-16" value="Colocar o&lt;div&gt;&amp;nbsp;conteúdo do ovo na frigideira&lt;/div&gt;" style="rhombus;whiteSpace=wrap;html=1;fillColor=#ffe6cc;strokeColor=#d79b00;" vertex="1" parent="1">
          <mxGeometry x="325" y="1240" width="110" height="101" as="geometry" />
        </mxCell>
        <mxCell id="-3cDzw1IV1JCf2Cq5zp4-17" value="Pegar Sal" style="rhombus;whiteSpace=wrap;html=1;fillColor=#ffe6cc;strokeColor=#d79b00;" vertex="1" parent="1">
          <mxGeometry x="340" y="435" width="80" height="80" as="geometry" />
        </mxCell>
        <mxCell id="-3cDzw1IV1JCf2Cq5zp4-19" value="Sem Sal" style="rounded=0;whiteSpace=wrap;html=1;fillColor=#ffe6cc;strokeColor=#d79b00;" vertex="1" parent="1">
          <mxGeometry x="170" y="460" width="80" height="30" as="geometry" />
        </mxCell>
        <mxCell id="-3cDzw1IV1JCf2Cq5zp4-20" style="edgeStyle=orthogonalEdgeStyle;rounded=0;orthogonalLoop=1;jettySize=auto;html=1;exitX=0.5;exitY=1;exitDx=0;exitDy=0;" edge="1" parent="1" source="-3cDzw1IV1JCf2Cq5zp4-19" target="-3cDzw1IV1JCf2Cq5zp4-19">
          <mxGeometry relative="1" as="geometry" />
        </mxCell>
        <mxCell id="-3cDzw1IV1JCf2Cq5zp4-22" value="Colocar com sal" style="rounded=0;whiteSpace=wrap;html=1;fillColor=#ffe6cc;strokeColor=#d79b00;" vertex="1" parent="1">
          <mxGeometry x="320" y="1550" width="120" height="30" as="geometry" />
        </mxCell>
        <mxCell id="-3cDzw1IV1JCf2Cq5zp4-24" value="Apagar o fogo" style="rounded=0;whiteSpace=wrap;html=1;fillColor=#ffe6cc;strokeColor=#d79b00;" vertex="1" parent="1">
          <mxGeometry x="320" y="1780" width="120" height="60" as="geometry" />
        </mxCell>
        <mxCell id="-3cDzw1IV1JCf2Cq5zp4-25" value="Fim" style="ellipse;whiteSpace=wrap;html=1;fillColor=#ffe6cc;strokeColor=#d79b00;" vertex="1" parent="1">
          <mxGeometry x="320" y="1900" width="120" height="80" as="geometry" />
        </mxCell>
        <mxCell id="-3cDzw1IV1JCf2Cq5zp4-26" value="Cozinhe" style="whiteSpace=wrap;html=1;fillColor=#ffe6cc;strokeColor=#d79b00;" vertex="1" parent="1">
          <mxGeometry x="520" y="732.5" width="110" height="25" as="geometry" />
        </mxCell>
        <mxCell id="-3cDzw1IV1JCf2Cq5zp4-28" value="Colocar com sal" style="whiteSpace=wrap;html=1;fillColor=#ffe6cc;strokeColor=#d79b00;" vertex="1" parent="1">
          <mxGeometry x="120" y="1271" width="130" height="39.25" as="geometry" />
        </mxCell>
        <mxCell id="-3cDzw1IV1JCf2Cq5zp4-30" value="Espera 1 minuntos" style="whiteSpace=wrap;html=1;fillColor=#ffe6cc;strokeColor=#d79b00;" vertex="1" parent="1">
          <mxGeometry x="520" y="1270.75" width="130" height="39.5" as="geometry" />
        </mxCell>
        <mxCell id="-3cDzw1IV1JCf2Cq5zp4-32" value="" style="endArrow=classic;html=1;rounded=0;exitX=0.5;exitY=1;exitDx=0;exitDy=0;entryX=0.5;entryY=0;entryDx=0;entryDy=0;" edge="1" parent="1" source="3TLyr5KfRs7zvD90Gjim-1" target="-3cDzw1IV1JCf2Cq5zp4-5">
          <mxGeometry width="50" height="50" relative="1" as="geometry">
            <mxPoint x="390" y="230" as="sourcePoint" />
            <mxPoint x="440" y="180" as="targetPoint" />
          </mxGeometry>
        </mxCell>
        <mxCell id="-3cDzw1IV1JCf2Cq5zp4-34" value="" style="endArrow=classic;html=1;rounded=0;entryX=0.5;entryY=0;entryDx=0;entryDy=0;exitX=0.5;exitY=1;exitDx=0;exitDy=0;" edge="1" parent="1" source="-3cDzw1IV1JCf2Cq5zp4-5" target="-3cDzw1IV1JCf2Cq5zp4-13">
          <mxGeometry width="50" height="50" relative="1" as="geometry">
            <mxPoint x="370" y="320" as="sourcePoint" />
            <mxPoint x="410" y="300" as="targetPoint" />
          </mxGeometry>
        </mxCell>
        <mxCell id="-3cDzw1IV1JCf2Cq5zp4-35" value="" style="endArrow=classic;html=1;rounded=0;exitX=0.5;exitY=1;exitDx=0;exitDy=0;entryX=0.5;entryY=0;entryDx=0;entryDy=0;" edge="1" parent="1" source="-3cDzw1IV1JCf2Cq5zp4-13" target="-3cDzw1IV1JCf2Cq5zp4-17">
          <mxGeometry width="50" height="50" relative="1" as="geometry">
            <mxPoint x="490" y="670" as="sourcePoint" />
            <mxPoint x="540" y="620" as="targetPoint" />
          </mxGeometry>
        </mxCell>
        <mxCell id="-3cDzw1IV1JCf2Cq5zp4-37" value="" style="endArrow=classic;html=1;rounded=0;entryX=0;entryY=0.5;entryDx=0;entryDy=0;exitX=1;exitY=0.5;exitDx=0;exitDy=0;" edge="1" parent="1" source="-3cDzw1IV1JCf2Cq5zp4-17" target="-3cDzw1IV1JCf2Cq5zp4-14">
          <mxGeometry width="50" height="50" relative="1" as="geometry">
            <mxPoint x="490" y="670" as="sourcePoint" />
            <mxPoint x="540" y="620" as="targetPoint" />
          </mxGeometry>
        </mxCell>
        <mxCell id="-3cDzw1IV1JCf2Cq5zp4-38" value="Não" style="text;html=1;align=center;verticalAlign=middle;whiteSpace=wrap;rounded=0;" vertex="1" parent="1">
          <mxGeometry x="265" y="450" width="60" height="30" as="geometry" />
        </mxCell>
        <mxCell id="-3cDzw1IV1JCf2Cq5zp4-42" value="" style="endArrow=classic;html=1;rounded=0;exitX=0;exitY=0.5;exitDx=0;exitDy=0;entryX=1;entryY=0.5;entryDx=0;entryDy=0;" edge="1" parent="1" source="-3cDzw1IV1JCf2Cq5zp4-17" target="-3cDzw1IV1JCf2Cq5zp4-19">
          <mxGeometry width="50" height="50" relative="1" as="geometry">
            <mxPoint x="430" y="670" as="sourcePoint" />
            <mxPoint x="480" y="620" as="targetPoint" />
          </mxGeometry>
        </mxCell>
        <mxCell id="-3cDzw1IV1JCf2Cq5zp4-43" value="Sim" style="text;html=1;align=center;verticalAlign=middle;whiteSpace=wrap;rounded=0;" vertex="1" parent="1">
          <mxGeometry x="420" y="450" width="60" height="30" as="geometry" />
        </mxCell>
        <mxCell id="-3cDzw1IV1JCf2Cq5zp4-44" value="" style="endArrow=classic;html=1;rounded=0;exitX=0.5;exitY=1;exitDx=0;exitDy=0;entryX=0.5;entryY=0;entryDx=0;entryDy=0;" edge="1" parent="1" source="-3cDzw1IV1JCf2Cq5zp4-17" target="-3cDzw1IV1JCf2Cq5zp4-15">
          <mxGeometry width="50" height="50" relative="1" as="geometry">
            <mxPoint x="430" y="670" as="sourcePoint" />
            <mxPoint x="480" y="620" as="targetPoint" />
          </mxGeometry>
        </mxCell>
        <mxCell id="-3cDzw1IV1JCf2Cq5zp4-45" value="" style="endArrow=classic;html=1;rounded=0;exitX=0.5;exitY=1;exitDx=0;exitDy=0;entryX=0.5;entryY=0;entryDx=0;entryDy=0;" edge="1" parent="1" source="-3cDzw1IV1JCf2Cq5zp4-15" target="-3cDzw1IV1JCf2Cq5zp4-12">
          <mxGeometry width="50" height="50" relative="1" as="geometry">
            <mxPoint x="380" y="910" as="sourcePoint" />
            <mxPoint x="430" y="860" as="targetPoint" />
          </mxGeometry>
        </mxCell>
        <mxCell id="-3cDzw1IV1JCf2Cq5zp4-46" value="" style="endArrow=classic;html=1;rounded=0;exitX=0.5;exitY=1;exitDx=0;exitDy=0;entryX=0.5;entryY=0;entryDx=0;entryDy=0;" edge="1" parent="1" source="-3cDzw1IV1JCf2Cq5zp4-12" target="-3cDzw1IV1JCf2Cq5zp4-3">
          <mxGeometry width="50" height="50" relative="1" as="geometry">
            <mxPoint x="380" y="1050" as="sourcePoint" />
            <mxPoint x="430" y="1000" as="targetPoint" />
          </mxGeometry>
        </mxCell>
        <mxCell id="-3cDzw1IV1JCf2Cq5zp4-47" value="" style="endArrow=classic;html=1;rounded=0;exitX=0.5;exitY=1;exitDx=0;exitDy=0;entryX=0.5;entryY=0;entryDx=0;entryDy=0;" edge="1" parent="1" source="-3cDzw1IV1JCf2Cq5zp4-11" target="-3cDzw1IV1JCf2Cq5zp4-6">
          <mxGeometry width="50" height="50" relative="1" as="geometry">
            <mxPoint x="390" y="1050" as="sourcePoint" />
            <mxPoint x="440" y="1000" as="targetPoint" />
          </mxGeometry>
        </mxCell>
        <mxCell id="-3cDzw1IV1JCf2Cq5zp4-48" value="" style="endArrow=classic;html=1;rounded=0;exitX=0.5;exitY=1;exitDx=0;exitDy=0;entryX=0.5;entryY=0;entryDx=0;entryDy=0;" edge="1" parent="1" source="-3cDzw1IV1JCf2Cq5zp4-3" target="-3cDzw1IV1JCf2Cq5zp4-11">
          <mxGeometry width="50" height="50" relative="1" as="geometry">
            <mxPoint x="390" y="1050" as="sourcePoint" />
            <mxPoint x="440" y="1000" as="targetPoint" />
          </mxGeometry>
        </mxCell>
        <mxCell id="-3cDzw1IV1JCf2Cq5zp4-49" value="" style="endArrow=classic;html=1;rounded=0;exitX=0.5;exitY=1;exitDx=0;exitDy=0;entryX=0.5;entryY=0;entryDx=0;entryDy=0;" edge="1" parent="1" source="-3cDzw1IV1JCf2Cq5zp4-6" target="-3cDzw1IV1JCf2Cq5zp4-16">
          <mxGeometry width="50" height="50" relative="1" as="geometry">
            <mxPoint x="390" y="1240" as="sourcePoint" />
            <mxPoint x="440" y="1190" as="targetPoint" />
          </mxGeometry>
        </mxCell>
        <mxCell id="-3cDzw1IV1JCf2Cq5zp4-50" value="" style="endArrow=classic;html=1;rounded=0;exitX=0.5;exitY=1;exitDx=0;exitDy=0;" edge="1" parent="1" source="-3cDzw1IV1JCf2Cq5zp4-16" target="-3cDzw1IV1JCf2Cq5zp4-10">
          <mxGeometry width="50" height="50" relative="1" as="geometry">
            <mxPoint x="390" y="1440" as="sourcePoint" />
            <mxPoint x="440" y="1390" as="targetPoint" />
          </mxGeometry>
        </mxCell>
        <mxCell id="-3cDzw1IV1JCf2Cq5zp4-51" value="" style="endArrow=classic;html=1;rounded=0;exitX=0.5;exitY=1;exitDx=0;exitDy=0;entryX=0.5;entryY=0;entryDx=0;entryDy=0;" edge="1" parent="1" source="-3cDzw1IV1JCf2Cq5zp4-10" target="-3cDzw1IV1JCf2Cq5zp4-22">
          <mxGeometry width="50" height="50" relative="1" as="geometry">
            <mxPoint x="340" y="1430" as="sourcePoint" />
            <mxPoint x="400" y="1580" as="targetPoint" />
          </mxGeometry>
        </mxCell>
        <mxCell id="-3cDzw1IV1JCf2Cq5zp4-52" value="" style="endArrow=classic;html=1;rounded=0;exitX=0.5;exitY=1;exitDx=0;exitDy=0;entryX=0.5;entryY=0;entryDx=0;entryDy=0;" edge="1" parent="1" source="-3cDzw1IV1JCf2Cq5zp4-22" target="-3cDzw1IV1JCf2Cq5zp4-9">
          <mxGeometry width="50" height="50" relative="1" as="geometry">
            <mxPoint x="390" y="1580" as="sourcePoint" />
            <mxPoint x="440" y="1530" as="targetPoint" />
          </mxGeometry>
        </mxCell>
        <mxCell id="-3cDzw1IV1JCf2Cq5zp4-53" value="" style="endArrow=classic;html=1;rounded=0;exitX=0.5;exitY=1;exitDx=0;exitDy=0;entryX=0.5;entryY=0;entryDx=0;entryDy=0;" edge="1" parent="1" source="-3cDzw1IV1JCf2Cq5zp4-9" target="-3cDzw1IV1JCf2Cq5zp4-24">
          <mxGeometry width="50" height="50" relative="1" as="geometry">
            <mxPoint x="390" y="1780" as="sourcePoint" />
            <mxPoint x="440" y="1730" as="targetPoint" />
          </mxGeometry>
        </mxCell>
        <mxCell id="-3cDzw1IV1JCf2Cq5zp4-54" value="" style="endArrow=classic;html=1;rounded=0;exitX=0.5;exitY=1;exitDx=0;exitDy=0;" edge="1" parent="1" source="-3cDzw1IV1JCf2Cq5zp4-24" target="-3cDzw1IV1JCf2Cq5zp4-25">
          <mxGeometry width="50" height="50" relative="1" as="geometry">
            <mxPoint x="390" y="1780" as="sourcePoint" />
            <mxPoint x="440" y="1730" as="targetPoint" />
          </mxGeometry>
        </mxCell>
      </root>
    </mxGraphModel>
  </diagram>
</mxfile>
